<?xml version="1.0" encoding="UTF-8" standalone="no"?>
<!-- Uploaded to: SVG Repo, www.svgrepo.com, Generator: SVG Repo Mixer Tools -->

<svg
   xmlns:dc="http://purl.org/dc/elements/1.1/"
   xmlns:cc="http://creativecommons.org/ns#"
   xmlns:rdf="http://www.w3.org/1999/02/22-rdf-syntax-ns#"
   xmlns:svg="http://www.w3.org/2000/svg"
   xmlns="http://www.w3.org/2000/svg"
   xmlns:sodipodi="http://sodipodi.sourceforge.net/DTD/sodipodi-0.dtd"
   xmlns:inkscape="http://www.inkscape.org/namespaces/inkscape"
   version="1.1"
   id="Capa_1"
   width="874.44537"
   height="863.76575"
   viewBox="0 0 483.17479 477.27376"
   xml:space="preserve"
   sodipodi:docname="notice.svg"
   style="fill:#000000"
   inkscape:version="0.92.5 (2060ec1f9f, 2020-04-08)"><metadata
   id="metadata880"><rdf:RDF><cc:Work
       rdf:about=""><dc:format>image/svg+xml</dc:format><dc:type
         rdf:resource="http://purl.org/dc/dcmitype/StillImage" /></cc:Work></rdf:RDF></metadata><defs
   id="defs878">
	
	
	
</defs><sodipodi:namedview
   pagecolor="#ffffff"
   bordercolor="#666666"
   borderopacity="1"
   objecttolerance="10"
   gridtolerance="10"
   guidetolerance="10"
   inkscape:pageopacity="0"
   inkscape:pageshadow="2"
   inkscape:window-width="640"
   inkscape:window-height="480"
   id="namedview876"
   showgrid="false"
   inkscape:zoom="1.03"
   inkscape:cx="435.76638"
   inkscape:cy="433.82462"
   inkscape:current-layer="Capa_1" />
<g
   id="g863"
   transform="translate(19.762713,16.543974)">
		<path
   inkscape:connector-curvature="0"
   id="path861"
   d="m 221.02,341.304 c -49.708,0 -103.206,-19.44 -154.71,-56.22 C 27.808,257.59 4.044,230.351 3.051,229.203 c -4.068,-4.697 -4.068,-11.669 0,-16.367 0.993,-1.146 24.756,-28.387 63.259,-55.881 51.505,-36.777 105.003,-56.219 154.71,-56.219 49.708,0 103.207,19.441 154.71,56.219 38.502,27.494 62.266,54.734 63.259,55.881 4.068,4.697 4.068,11.669 0,16.367 -0.993,1.146 -24.756,28.387 -63.259,55.881 -51.503,36.779 -105.001,56.22 -154.71,56.22 z M 29.638,221.021 c 9.61,9.799 27.747,27.03 51.694,44.071 32.83,23.361 83.714,51.212 139.688,51.212 55.974,0 106.859,-27.851 139.688,-51.212 23.944,-17.038 42.082,-34.271 51.694,-44.071 -9.609,-9.799 -27.747,-27.03 -51.694,-44.071 -32.829,-23.362 -83.714,-51.212 -139.688,-51.212 -55.974,0 -106.858,27.85 -139.688,51.212 -23.944,17.038 -42.082,34.269 -51.694,44.071 z" />
	</g><g
   id="g867"
   transform="translate(19.762713,16.543974)"
   style="fill:#008080">
		<path
   inkscape:connector-curvature="0"
   id="path865"
   d="m 221.02,298.521 c -42.734,0 -77.5,-34.767 -77.5,-77.5 0,-42.733 34.766,-77.5 77.5,-77.5 18.794,0 36.924,6.814 51.048,19.188 5.193,4.549 5.715,12.446 1.166,17.639 -4.549,5.193 -12.447,5.714 -17.639,1.166 -9.564,-8.379 -21.844,-12.993 -34.576,-12.993 -28.949,0 -52.5,23.552 -52.5,52.5 0,28.948 23.551,52.5 52.5,52.5 28.95,0 52.5,-23.552 52.5,-52.5 0,-6.903 5.597,-12.5 12.5,-12.5 6.903,0 12.5,5.597 12.5,12.5 0.002,42.733 -34.765,77.5 -77.499,77.5 z"
   style="fill:#008080" />
	</g><g
   id="g871"
   transform="translate(19.762713,16.543974)">
		<path
   inkscape:connector-curvature="0"
   id="path869"
   d="m 221.02,246.021 c -13.785,0 -25,-11.215 -25,-25 0,-13.785 11.215,-25 25,-25 13.786,0 25,11.215 25,25 0,13.785 -11.214,25 -25,25 z" />
	</g>
<rect
   style="opacity:1;fill:#666666;fill-opacity:0;stroke:#000000;stroke-width:6.26513386;stroke-linecap:butt;stroke-linejoin:round;stroke-miterlimit:4;stroke-dasharray:none;stroke-dashoffset:0;stroke-opacity:1"
   id="rect882"
   width="476.90967"
   height="471.00864"
   x="3.1325669"
   y="3.1325669"
   rx="5.8938851"
   ry="3.0776482" /></svg>