<?xml version="1.0" encoding="UTF-8" standalone="no"?>
<!-- Created with Inkscape (http://www.inkscape.org/) -->

<svg
   xmlns:dc="http://purl.org/dc/elements/1.1/"
   xmlns:cc="http://creativecommons.org/ns#"
   xmlns:rdf="http://www.w3.org/1999/02/22-rdf-syntax-ns#"
   xmlns:svg="http://www.w3.org/2000/svg"
   xmlns="http://www.w3.org/2000/svg"
   xmlns:sodipodi="http://sodipodi.sourceforge.net/DTD/sodipodi-0.dtd"
   xmlns:inkscape="http://www.inkscape.org/namespaces/inkscape"
   width="13.486202mm"
   height="10.388775mm"
   viewBox="0 0 13.486202 10.388775"
   version="1.1"
   id="svg8"
   inkscape:version="0.92.5 (2060ec1f9f, 2020-04-08)"
   sodipodi:docname="paperwallet.svg">
  <defs
     id="defs2" />
  <sodipodi:namedview
     id="base"
     pagecolor="#ffffff"
     bordercolor="#666666"
     borderopacity="1.0"
     inkscape:pageopacity="0.0"
     inkscape:pageshadow="2"
     inkscape:zoom="9.7049807"
     inkscape:cx="29.308443"
     inkscape:cy="19.632333"
     inkscape:document-units="mm"
     inkscape:current-layer="layer1"
     showgrid="false" />
  <metadata
     id="metadata5">
    <rdf:RDF>
      <cc:Work
         rdf:about="">
        <dc:format>image/svg+xml</dc:format>
        <dc:type
           rdf:resource="http://purl.org/dc/dcmitype/StillImage" />
        <dc:title />
      </cc:Work>
    </rdf:RDF>
  </metadata>
  <g
     inkscape:label="Layer 1"
     inkscape:groupmode="layer"
     id="layer1"
     transform="translate(-98.760781,-99.382282)">
    <g
       style="fill:#552200;stroke-width:18.47271919"
       id="g878"
       transform="matrix(-0.35807311,0,0,0.35807311,112.24376,98.846963)">
      <path
         id="path867"
         d="M 31.989,9.078 C 32.004,8.339 31.805,6.614 29.556,6.014 L 6.98,1.495 c -1.655,0 -3,1.345 -3,3 v 4.022 l -1,-0.002 c -1.649,0.007 -2.989,1.348 -2.989,2.999 v 15.994 c 0,1.654 1.345,3 3,3 h 26.014 c 1.654,0 3,-1.346 3,-3 z M 5.981,4.494 c 0,-0.522 0.402,-0.952 0.913,-0.996 l 22.063,4.465 c 0.008,0.004 -0.164,0.56 -0.965,0.55 H 5.981 Z m 24.027,23.013 c 0,0.552 -0.448,1 -1,1 H 2.993 c -0.552,0 -1,-0.448 -1,-1 V 11.512 c 0,-0.552 0.448,-1 1,-1 h 25.002 c 0.982,0 2.012,-0.335 2.012,-0.996 v 17.991 0 z M 5.995,17.516 c -1.104,0 -2,0.895 -2,2 0,1.105 0.896,2 2,2 1.104,0 2,-0.895 2,-2 0,-1.105 -0.896,-2 -2,-2 z"
         inkscape:connector-curvature="0"
         style="stroke-width:18.47271919;fill:#552200" />
    </g>
    <path
       id="path928"
       d="m 103.96077,104.80004 h -4.935406 v 2.25375 h 4.935406 v 0.93776 c 0,0 2.59689,-2.06723 2.59689,-2.06723 l -2.59689,-2.06722 v 0.93777 z"
       inkscape:connector-curvature="0"
       style="fill:#008000;stroke:#008000;stroke-width:0.52916664" />
  </g>
</svg>
